<?xml version="1.0"?>
<!-- Converted with SVG Converter - Version 0.9.5 (Compiled Mon May 30 09:08:51 2011) - Copyright (C) 2011 Nokia -->
<svg xmlns="http://www.w3.org/2000/svg" width="44" version="1.1" height="44" viewBox="0 0 44 44" xmlns:xlink="http://www.w3.org/1999/xlink" baseProfile="tiny" id="svg2">
 <defs id="defs4">
  <linearGradient gradientTransform="matrix(1.8571428,0,0,1.8571427,-0.857143,-0.8571427)" id="hicg_overlay_grad" y1="5.1816001" x1="39.9995" y2="58.801899" x2="39.9995" gradientUnits="userSpaceOnUse">
   <stop offset="0" style="stop-color:#ffffff;stop-opacity:1" id="stop7"/>
   <stop offset="1" style="stop-color:#000000;stop-opacity:1" id="stop9"/>
  </linearGradient>
  <linearGradient gradientTransform="matrix(1.8571428,0,0,1.8571427,18.292087,12.039386)" id="linearGradient2877" y1="49.110714" x1="16.4375" y2="43.420425" x2="17.402376" gradientUnits="userSpaceOnUse">
   <stop offset="0" style="stop-color:#ffffff;stop-opacity:1" id="stop35"/>
   <stop offset="1" style="stop-color:#ffffff;stop-opacity:0" id="stop37"/>
  </linearGradient>
  <linearGradient gradientTransform="matrix(1.8571428,0,0,1.8571427,18.292087,12.039386)" id="linearGradient2879" y1="49.110714" x1="16.4375" y2="43.420425" x2="17.402376" gradientUnits="userSpaceOnUse">
   <stop offset="0" style="stop-color:#ffffff;stop-opacity:1" id="stop35"/>
   <stop offset="1" style="stop-color:#ffffff;stop-opacity:0" id="stop37"/>
  </linearGradient>
  <linearGradient gradientTransform="matrix(1.8571428,0,0,1.8571427,18.292087,12.039386)" id="linearGradient2881" y1="49.110714" x1="16.4375" y2="43.420425" x2="17.402376" gradientUnits="userSpaceOnUse">
   <stop offset="0" style="stop-color:#ffffff;stop-opacity:1" id="stop35"/>
   <stop offset="1" style="stop-color:#ffffff;stop-opacity:0" id="stop37"/>
  </linearGradient>
 </defs>
 <g id="g11" transform="matrix(0.53846154,0,0,0.53846154,0.46153846,0.46153845)">
  <path style="fill:#000000" id="hicg_background" d="M 79,40 C 79,68.893 68.895,79 40,79 11.105,79 1,68.893 1,40 1,11.106 11.105,1 40,1 68.895,1 79,11.106 79,40 z"/>
  <path style="fill:#ffffff;fill-opacity:0.25;stroke-opacity:0.25" id="hicg_highlight" d="M 39.999,1 C 11.105,1 1,11.106 1,40 1,68.893 11.105,79 39.999,79 68.896,79 79,68.893 79,40 79,11.106 68.896,1 39.999,1 z m 0,77.025 C 11.57,78.025 1.976,68.43 1.976,40 c 0,-28.429 9.595,-38.024 38.023,-38.024 28.43,0 38.024,9.596 38.024,38.024 0,28.43 -9.594,38.025 -38.024,38.025 z"/>
  <path style="fill:url(#hicg_overlay_grad);fill-opacity:0.4;stroke-opacity:0.4" id="hicg_overlay" d="M 78.977,40 C 78.977,68.893 68.877,79 40,79 11.123,79 1.023,68.893 1.023,40 1.023,11.106 11.123,1 40,1 68.877,1 78.977,11.106 78.977,40 z"/>
 </g>
 <g id="g16" transform="matrix(0.62820513,0,0,0.62820513,6.9230769,6.9230771)">
  <defs id="defs3">
   <linearGradient id="linearGradient2407">
    <stop offset="0" style="stop-color:#d5d5d5;stop-opacity:1" id="stop2409"/>
    <stop offset="1" style="stop-color:#747474;stop-opacity:1" id="stop2411"/>
   </linearGradient>
   <linearGradient id="linearGradient2399">
    <stop offset="0" style="stop-color:#ffffff;stop-opacity:1" id="stop2401"/>
    <stop offset="1" style="stop-color:#ffffff;stop-opacity:0" id="stop2403"/>
   </linearGradient>
   <linearGradient id="linearGradient2371">
    <stop offset="0" style="stop-color:#000000;stop-opacity:1" id="stop2373"/>
    <stop offset="1" style="stop-color:#000000;stop-opacity:0.48453608" id="stop2375"/>
   </linearGradient>
   <linearGradient id="linearGradient2345">
    <stop offset="0" style="stop-color:#d5d5d5;stop-opacity:1" id="stop2347"/>
    <stop offset="1" style="stop-color:#a0a0a0;stop-opacity:1" id="stop2349"/>
   </linearGradient>
   <linearGradient id="linearGradient2232">
    <stop offset="0" style="stop-color:#b0b0b0;stop-opacity:1" id="stop2234"/>
    <stop offset="1" style="stop-color:#747474;stop-opacity:1" id="stop2236"/>
   </linearGradient>
   <linearGradient id="linearGradient2405" y1="49.110714" x1="16.4375" y2="43.420425" x2="17.402376" gradientUnits="userSpaceOnUse">
    <stop offset="0" style="stop-color:#ffffff;stop-opacity:1" id="stop35"/>
    <stop offset="1" style="stop-color:#ffffff;stop-opacity:0" id="stop37"/>
   </linearGradient>
  </defs>
  <g id="layer1">
   <path style="opacity:0.29545456;fill:none;stroke:url(#linearGradient2877);stroke-width:1.16238523;stroke-linecap:butt;stroke-linejoin:miter;stroke-miterlimit:4;stroke-opacity:1;stroke-dasharray:none;stroke-dashoffset:0;marker:none;visibility:visible;display:inline;overflow:visible" id="path8309" d="m 27.625,46.375 c 0,3.2447 -5.0088,5.875 -11.1875,5.875 -6.1787,0 -11.1875,-2.6303 -11.1875,-5.875 0,-3.2447 5.0088,-5.875 11.1875,-5.875 6.1787,0 11.1875,2.6303 11.1875,5.875 z" transform="matrix(0.916296,0,0,0.807726,10.12589,1.916708)"/>
   <path style="fill:#b3b3b3;fill-opacity:1;fill-rule:nonzero;stroke:#424242;stroke-width:1;stroke-linecap:butt;stroke-linejoin:miter;stroke-miterlimit:4;stroke-opacity:1;stroke-dasharray:none" id="path8325" d="m 36.246368,39.37631 c 0.06074,2.321079 -2.750116,4.559556 -6.792377,5.438771 -4.012635,0.928466 -9.005066,0.431174 -12.097934,-1.215211 -3.139487,-1.584745 -4.211881,-4.181664 -2.629877,-6.320689 1.520229,-2.196868 5.697709,-3.776229 10.111864,-3.80358 4.376158,-0.09215 8.669386,1.345132 10.425904,3.471559 0.649391,0.760257 0.984217,1.594599 0.98242,2.42915 z"/>
   <path style="fill:#424242;fill-opacity:1;fill-rule:nonzero;stroke:#424242;stroke-width:1.08824837;stroke-linecap:butt;stroke-linejoin:miter;stroke-miterlimit:4;stroke-opacity:1;stroke-dasharray:none" id="path8301" d="m 28.458701,37.469191 c 0.01838,0.782493 -0.832093,1.537139 -2.055144,1.833545 -1.214088,0.313008 -2.724629,0.145359 -3.660427,-0.409678 -0.949903,-0.534257 -1.274373,-1.409742 -0.795712,-2.130861 0.45997,-0.740618 1.723934,-1.27306 3.059509,-1.28228 1.324077,-0.03107 2.623063,0.453476 3.154527,1.170348 0.196483,0.256301 0.297791,0.537579 0.297247,0.818926 z"/>
   <path style="fill:none;stroke:#cccccc;stroke-width:1;stroke-linecap:butt;stroke-linejoin:miter;stroke-miterlimit:4;stroke-opacity:0.98255813;stroke-dasharray:none;stroke-dashoffset:0;marker:none;visibility:visible;display:inline;overflow:visible" id="path2250" d="m 20.25,31.375 c 0,0 0.735875,3.40224 3,3.125 6.125,-0.75 5.471362,-0.489507 9.875,0.875 4.4375,1.375 2.09375,3.59375 6.625,4 4.53125,0.40625 4.125,-3.625 8,-3.875"/>
   <rect width="22.136791" x="16.028919" y="-4.0142608" rx="6.6936979" height="30.692028" ry="6.6936979" style="fill:#999999;fill-opacity:1;fill-rule:evenodd;stroke:#7c7c7c;stroke-width:1.00015199;stroke-linecap:butt;stroke-linejoin:miter;stroke-miterlimit:4;stroke-opacity:1;stroke-dasharray:none;stroke-dashoffset:0;marker:none;visibility:visible;display:inline;overflow:visible" id="rect1343" transform="matrix(0.970732,0.240164,-0.264014,0.964519,0,0)"/>
   <rect width="19.862064" x="17.210075" y="-3.006144" rx="5.4198565" height="28.524395" ry="5.4198565" style="opacity:0.30681817;fill:none;stroke:#ffffff;stroke-width:1.00015211;stroke-linecap:butt;stroke-linejoin:miter;stroke-miterlimit:4;stroke-opacity:1;stroke-dasharray:none;stroke-dashoffset:0;marker:none;visibility:visible;display:inline;overflow:visible" id="rect2353" transform="matrix(0.970732,0.240164,-0.264014,0.964519,0,0)"/>
   <path style="opacity:0.44318183;fill:#ececec;fill-opacity:1;fill-rule:evenodd;stroke:none;stroke-width:1.00015175;marker:none;visibility:visible;display:inline;overflow:visible" id="rect2302" d="M 20.09375,1.96875 C 17.872662,2.3212044 15.943233,4.0082576 15.3125,6.3125 l -4.84375,17.84375 c 2.856946,1.404105 6.63761,0.46875 10.21875,0.46875 0.490008,0 0.988068,-0.0015 1.46875,-0.03125 -0.935141,-0.227563 -2.3125,-0.5625 -2.3125,-0.5625 -0.219863,-0.05954 -0.421184,-0.135194 -0.5625,-0.25 C 19.27655,23.77715 19.25459,23.75417 19.25,23.75 19.23667,23.73716 19.20306,23.70373 19.1875,23.6875 19.1818,23.682 19.16186,23.66182 19.15625,23.65625 19.14805,23.64039 19.1313,23.60616 19.125,23.59375 19.1153,23.56941 19.10027,23.52182 19.09375,23.5 c 1.96e-4,-0.0031 -6.1e-5,-0.02851 0,-0.03125 -0.0058,-0.01078 -0.02563,-0.05156 -0.03125,-0.0625 7.1e-5,-0.0061 4.7e-5,-0.02725 0,-0.03125 2.3e-4,-0.01787 -3.3e-5,-0.05098 0,-0.0625 -1.06e-4,-0.006 -3.17e-4,-0.02762 0,-0.03125 -1.09e-4,-0.0032 1.1e-5,-0.02848 0,-0.03125 0.0081,-0.03623 0.02466,-0.09348 0.03125,-0.125 0.0053,-0.01027 0.0254,-0.05125 0.03125,-0.0625 1e-6,-0.0029 2.63e-4,-0.02817 0,-0.03125 0.0076,-0.02457 0.02232,-0.07148 0.03125,-0.09375 0.0081,-0.01646 0.02615,-0.05247 0.03125,-0.0625 0.02476,-0.04515 0.06326,-0.117676 0.09375,-0.15625 0.0064,-0.0065 0.02699,-0.02699 0.03125,-0.03125 0.01125,-0.0055 0.05222,-0.02625 0.0625,-0.03125 0.02856,-0.01715 0.08934,-0.0477 0.125,-0.0625 0.01088,1.54e-4 0.05152,-3.15e-4 0.0625,0 -1.81e-4,-0.0017 -5.4e-5,-0.02423 0,-0.03125 0.007,-5.8e-5 0.02948,-2.06e-4 0.03125,0 0.174833,-0.03267 0.396484,-0.0068 0.625,0.03125 l 5.9375,1.375 c 1.190295,-0.291143 2.327227,-0.690228 3.40625,-1.15625 -0.152403,-0.08613 -0.317465,-0.140846 -0.46875,-0.1875 -0.03737,-0.01082 -0.08789,-0.02344 -0.125,-0.03125 0,0 -8.21875,-2 -8.21875,-2 -0.219863,-0.05954 -0.444213,-0.135194 -0.59375,-0.25 -0.005,-0.0041 -0.0264,-0.02708 -0.03125,-0.03125 C 20.1205,20.3081 20.0981,20.28576 20.09375,20.28125 20.08955,20.27665 20.06649,20.25474 20.0625,20.25 20.0571,20.23937 20.03623,20.19841 20.03125,20.1875 20.02555,20.182 20.00565,20.16179 20,20.15625 c 3.13e-4,-0.0032 -9.2e-5,-0.02849 0,-0.03125 -0.0057,-0.01088 -0.02575,-0.05147 -0.03125,-0.0625 1.71e-4,-0.0031 -5.8e-5,-0.02851 0,-0.03125 -3.1e-5,-0.01078 -2.19e-4,-0.05156 0,-0.0625 -7.29e-4,-0.02153 -0.0017,-0.0707 0,-0.09375 4.2e-5,-0.0035 1.39e-4,-0.02729 0,-0.03125 -7.08e-4,-0.01301 -8.47e-4,-0.05144 0,-0.0625 -1.44e-4,-0.0034 2.2e-5,-0.02842 0,-0.03125 0.0057,-0.01115 0.02592,-0.05212 0.03125,-0.0625 0.0088,-0.02783 0.02164,-0.06835 0.03125,-0.09375 0.0053,-0.01064 0.02572,-0.05177 0.03125,-0.0625 0.01712,-0.03633 0.04438,-0.09357 0.0625,-0.125 0.01442,-0.02096 0.04488,-0.07032 0.0625,-0.09375 0.0046,-0.0049 0.02658,-0.02659 0.03125,-0.03125 0.0064,-0.0065 0.02699,-0.02699 0.03125,-0.03125 0.01129,-0.0055 0.05225,-0.02625 0.0625,-0.03125 0.01589,-0.0083 0.04993,-0.02514 0.0625,-0.03125 0.0085,-0.0038 0.04594,-0.02303 0.0625,-0.03125 0.0032,2.44e-4 0.0285,-7.1e-5 0.03125,0 0.0043,-0.0042 0.02473,-0.02481 0.03125,-0.03125 0.0028,5.8e-5 0.028,-1.65e-4 0.03125,0 0.0072,-0.007 0.02992,-0.0295 0.03125,-0.03125 0.0033,1.6e-4 0.02847,-5.8e-5 0.03125,0 0.0064,1.24e-4 0.02825,1.21e-4 0.03125,0 0.144148,-0.0058 0.322022,0.03284 0.5,0.0625 l 8.3125,1.9375 c 0.619385,0.172852 1.187319,0.608795 1.625,1.03125 0.513762,-0.273253 0.991279,-0.594876 1.46875,-0.90625 C 32.385605,21.023752 31.200805,19.519263 30.125,19.1875 30.08763,19.17668 30.03711,19.16406 30,19.15625 c 0,0 -8.21875,-2 -8.21875,-2 -0.219863,-0.05954 -0.444213,-0.135194 -0.59375,-0.25 -0.005,-0.0041 -0.0264,-0.02708 -0.03125,-0.03125 -0.0045,-0.0044 -0.0269,-0.02674 -0.03125,-0.03125 -0.0042,-0.0046 -0.02726,-0.02651 -0.03125,-0.03125 -0.0054,-0.01063 -0.02627,-0.05159 -0.03125,-0.0625 -0.0057,-0.0055 -0.0256,-0.02571 -0.03125,-0.03125 3.13e-4,-0.0032 -9.2e-5,-0.02849 0,-0.03125 C 21.02555,16.67662 21.0055,16.63603 21,16.625 c 1.71e-4,-0.0031 -5.8e-5,-0.02851 0,-0.03125 -3.1e-5,-0.01078 -2.19e-4,-0.05156 0,-0.0625 -7.29e-4,-0.02153 -0.0017,-0.0707 0,-0.09375 4.2e-5,-0.0035 1.39e-4,-0.02729 0,-0.03125 -7.08e-4,-0.01301 -8.47e-4,-0.05144 0,-0.0625 -1.44e-4,-0.0034 2.2e-5,-0.02842 0,-0.03125 0.0057,-0.01115 0.02592,-0.05212 0.03125,-0.0625 0.0088,-0.02783 0.02164,-0.06835 0.03125,-0.09375 0.0053,-0.01064 0.02572,-0.05177 0.03125,-0.0625 0.01712,-0.03633 0.04438,-0.09357 0.0625,-0.125 0.01442,-0.02096 0.04488,-0.07032 0.0625,-0.09375 0.0046,-0.0049 0.02658,-0.02659 0.03125,-0.03125 0.0064,-0.0065 0.02699,-0.02699 0.03125,-0.03125 0.01129,-0.0055 0.05225,-0.02625 0.0625,-0.03125 0.01589,-0.0083 0.04993,-0.02514 0.0625,-0.03125 0.0055,-0.0057 0.02574,-0.02557 0.03125,-0.03125 0.01093,1.72e-4 0.05148,-3.36e-4 0.0625,0 0.0043,-0.0042 0.02473,-0.02481 0.03125,-0.03125 0.0028,5.8e-5 0.028,-1.64e-4 0.03125,0 0.0072,-0.007 0.02992,-0.0295 0.03125,-0.03125 0.0033,1.6e-4 0.02847,-5.8e-5 0.03125,0 0.0064,1.24e-4 0.02825,1.2e-4 0.03125,0 0.144148,-0.0058 0.322022,0.03284 0.5,0.0625 l 8.3125,1.9375 c 1.34375,0.375 2.46875,2 2.46875,2 l -0.40625,1.5625 c 0.184167,-0.120101 0.38407,-0.218251 0.5625,-0.34375 L 35.6875,11.34375 C 36.528911,8.2698323 34.727126,5.1972501 31.65625,4.4375 L 22.375,2.125 C 21.77522,1.9766113 21.181753,1.9275559 20.59375,1.96875 c -0.0035,2.486e-4 -0.02517,7.82e-5 -0.03125,0 -0.0129,-2.549e-4 -0.05005,6.017e-4 -0.0625,0 -0.0063,-2.183e-4 -0.02482,2.3e-5 -0.03125,0 -0.003,-6.2e-5 -0.02464,2.87e-5 -0.03125,0 -0.03001,8.403e-4 -0.09506,-0.00124 -0.125,0 -0.0093,3.783e-4 -0.0463,2.411e-4 -0.0625,0 -0.0038,-5.14e-5 -0.02715,-2.325e-4 -0.03125,0 -0.01062,-1.801e-4 -0.05189,1.383e-4 -0.0625,0 -0.01063,-1.889e-4 -0.05188,1.477e-4 -0.0625,0 z m -4.5,5.21875 L 20.5,8.15625 c 0.19043,0.058594 0.39146,0.1451941 0.53125,0.28125 0.0045,0.00465 0.02686,0.026489 0.03125,0.03125 0.0043,0.00488 0.02714,0.026257 0.03125,0.03125 0.0053,0.010589 0.02627,0.051637 0.03125,0.0625 0.0057,0.00549 0.02561,0.025729 0.03125,0.03125 0.01009,0.024615 0.02353,0.071387 0.03125,0.09375 0.0088,0.028553 0.02484,0.089561 0.03125,0.125 -7.8e-5,0.00612 -5.2e-5,0.027254 0,0.03125 -2.51e-4,0.017731 3.8e-5,0.050749 0,0.0625 3.54e-4,0.028361 0.002,0.095219 0,0.125 1.43e-4,0.00343 -1.7e-5,0.028422 0,0.03125 -0.0057,0.011111 -0.02578,0.051666 -0.03125,0.0625 -0.0072,0.027506 -0.02266,0.068485 -0.03125,0.09375 2.84e-4,0.00308 -3.4e-5,0.028369 0,0.03125 C 21.15055,9.261482 21.13041,9.302411 21.125,9.3125 21.1179,9.326953 21.1014,9.361469 21.09375,9.375 21.08815,9.38049 21.06812,9.40082 21.0625,9.40625 21.0572,9.417343 21.03663,9.457875 21.03125,9.46875 21.02675,9.47419 21.00465,9.49477 21,9.5 20.9952,9.50502 20.97361,9.526436 20.96875,9.53125 20.96375,9.53586 20.94257,9.558093 20.9375,9.5625 20.92688,9.56784 20.88583,9.588844 20.875,9.59375 20.8695,9.59942 20.84927,9.619373 20.84375,9.625 20.82268,9.63372 20.77174,9.649139 20.75,9.65625 20.72577,9.66495 20.68145,9.681466 20.65625,9.6875 20.491012,9.722554 20.302734,9.707031 20.125,9.65625 L 15.1875,8.59375 15.59375,7.1875 z m 7.8125,1.59375 c 0.0033,1.604e-4 0.02847,-5.78e-5 0.03125,0 0.0064,1.235e-4 0.02825,1.207e-4 0.03125,0 0.144148,-0.0058 0.322022,0.032837 0.5,0.0625 l 8.3125,1.9375 c 1.34375,0.375 2.21875,1.75 2.21875,1.75 l -0.34375,1.53125 c -0.145645,-0.194998 -1.142945,-1.418237 -2.21875,-1.75 -0.03737,-0.01082 -0.08789,-0.02344 -0.125,-0.03125 0,0 -8.21875,-2 -8.21875,-2 C 23.373887,10.22171 23.149537,10.146056 23,10.03125 22.995,10.02715 22.9736,10.00417 22.96875,10 22.96425,9.99561 22.94185,9.973257 22.9375,9.96875 22.9333,9.96413 22.91024,9.942244 22.90625,9.9375 22.90085,9.926873 22.87998,9.885914 22.875,9.875 22.8693,9.8695 22.8494,9.849286 22.84375,9.84375 c 3.13e-4,-0.00319 -9.2e-5,-0.028491 0,-0.03125 C 22.83805,9.801616 22.818,9.761031 22.8125,9.75 c 1.71e-4,-0.0031 -5.8e-5,-0.028513 0,-0.03125 -3.1e-5,-0.010782 -2.19e-4,-0.051558 0,-0.0625 -7.29e-4,-0.02153 -0.0017,-0.0707 0,-0.09375 4.2e-5,-0.00354 1.39e-4,-0.027287 0,-0.03125 -7.08e-4,-0.013007 -8.47e-4,-0.05144 0,-0.0625 -1.44e-4,-0.00343 2.2e-5,-0.02842 0,-0.03125 0.0057,-0.011149 0.02592,-0.052118 0.03125,-0.0625 0.0088,-0.027832 0.02164,-0.068345 0.03125,-0.09375 0.0053,-0.010637 0.02572,-0.051774 0.03125,-0.0625 0.01712,-0.036329 0.04438,-0.093567 0.0625,-0.125 C 22.98317,9.072789 23.01363,9.02343 23.03125,9 23.03585,8.99513 23.05783,8.973411 23.0625,8.96875 23.0689,8.96226 23.08949,8.941763 23.09375,8.9375 23.10504,8.93199 23.146,8.91125 23.15625,8.90625 23.17214,8.89799 23.20618,8.881111 23.21875,8.875 23.22425,8.86927 23.24449,8.849434 23.25,8.84375 c 0.01093,1.718e-4 0.05148,-3.363e-4 0.0625,0 0.0043,-0.00424 0.02473,-0.02481 0.03125,-0.03125 0.0028,5.8e-5 0.028,-1.645e-4 0.03125,0 0.0072,-0.00702 0.02992,-0.029497 0.03125,-0.03125 z m -8.71875,1.78125 4.90625,0.96875 c 0.19043,0.05859 0.39146,0.145194 0.53125,0.28125 0.0045,0.0046 0.02686,0.02649 0.03125,0.03125 0.0043,0.0049 0.02714,0.02626 0.03125,0.03125 0.0053,0.01059 0.02627,0.05164 0.03125,0.0625 0.0057,0.0055 0.02561,0.02573 0.03125,0.03125 -1.8e-4,0.0016 -5.8e-5,0.02418 0,0.03125 0.0057,0.01087 0.02579,0.0515 0.03125,0.0625 0.007,0.02284 0.02449,0.06687 0.03125,0.09375 1.73e-4,0.0035 -3.9e-5,0.02725 0,0.03125 -4.29e-4,0.01784 -3.29e-4,0.05098 0,0.0625 -7.6e-5,0.0235 0.0024,0.06885 0,0.09375 -0.0053,0.04229 -0.01904,0.109863 -0.03125,0.15625 8.7e-5,0.0027 -3.11e-4,0.02847 0,0.03125 -0.01271,0.03004 -0.0485,0.09715 -0.0625,0.125 -0.0069,0.01492 -0.02386,0.04851 -0.03125,0.0625 -0.0053,0.01101 -0.02582,0.05171 -0.03125,0.0625 -0.0056,0.0055 -0.02564,0.02579 -0.03125,0.03125 -0.03543,0.04525 -0.08293,0.09292 -0.125,0.125 -0.0055,0.0057 -0.02572,0.02565 -0.03125,0.03125 -0.01585,0.0082 -0.04952,0.02477 -0.0625,0.03125 -0.0088,0.004 -0.04598,0.02307 -0.0625,0.03125 -0.0031,-2.61e-4 -0.02851,7.6e-5 -0.03125,0 -0.01091,0.0057 -0.05153,0.02568 -0.0625,0.03125 -0.165238,0.03505 -0.353516,0.01953 -0.53125,-0.03125 l -4.9375,-1.0625 0.40625,-1.40625 z M 22.5,12.21875 c 0.0033,1.6e-4 0.02847,-5.8e-5 0.03125,0 0.0064,1.24e-4 0.02825,1.21e-4 0.03125,0 0.144148,-0.0058 0.322022,0.03284 0.5,0.0625 l 8.3125,1.9375 c 1.34375,0.375 2.09375,1.65625 2.09375,1.65625 l -0.3125,1.4375 c -0.145645,-0.194998 -1.049195,-1.230737 -2.125,-1.5625 -0.03737,-0.01082 -0.08789,-0.02344 -0.125,-0.03125 0,0 -8.21875,-2 -8.21875,-2 -0.219863,-0.05954 -0.444213,-0.135194 -0.59375,-0.25 -0.005,-0.0041 -0.0264,-0.02708 -0.03125,-0.03125 C 22.058,13.4331 22.0356,13.41076 22.03125,13.40625 22.02705,13.40165 22.00399,13.37974 22,13.375 c -0.0054,-0.01063 -0.02627,-0.05159 -0.03125,-0.0625 -0.0057,-0.0055 -0.0256,-0.02571 -0.03125,-0.03125 3.13e-4,-0.0032 -9.2e-5,-0.02849 0,-0.03125 -0.0057,-0.01088 -0.02575,-0.05147 -0.03125,-0.0625 1.71e-4,-0.0031 -5.8e-5,-0.02851 0,-0.03125 -3.1e-5,-0.01078 -2.19e-4,-0.05156 0,-0.0625 -7.29e-4,-0.02153 -0.0017,-0.0707 0,-0.09375 4.2e-5,-0.0035 1.39e-4,-0.02729 0,-0.03125 -7.08e-4,-0.01301 -8.47e-4,-0.05144 0,-0.0625 -1.44e-4,-0.0034 2.2e-5,-0.02842 0,-0.03125 0.0057,-0.01115 0.02592,-0.05212 0.03125,-0.0625 0.0088,-0.02783 0.02164,-0.06835 0.03125,-0.09375 0.0053,-0.01064 0.02572,-0.05177 0.03125,-0.0625 0.01712,-0.03633 0.04438,-0.09357 0.0625,-0.125 0.01442,-0.02096 0.04488,-0.07032 0.0625,-0.09375 0.0046,-0.0049 0.02658,-0.02659 0.03125,-0.03125 0.0064,-0.0065 0.02699,-0.02699 0.03125,-0.03125 0.01129,-0.0055 0.05225,-0.02625 0.0625,-0.03125 0.01589,-0.0083 0.04993,-0.02514 0.0625,-0.03125 0.0085,-0.0038 0.04594,-0.02303 0.0625,-0.03125 0.0032,2.44e-4 0.0285,-7.1e-5 0.03125,0 0.0043,-0.0042 0.02473,-0.02481 0.03125,-0.03125 0.0028,5.8e-5 0.028,-1.64e-4 0.03125,0 0.0072,-0.007 0.02992,-0.0295 0.03125,-0.03125 z m -8.75,1.71875 4.90625,1 c 0.138855,0.04272 0.284631,0.109547 0.40625,0.1875 0.01105,0.0053 0.05157,0.02585 0.0625,0.03125 0.0055,0.0056 0.02575,0.02565 0.03125,0.03125 0.0053,0.0047 0.02608,0.02642 0.03125,0.03125 0.01317,0.01305 0.04669,0.04631 0.0625,0.0625 0.0056,0.0055 0.02564,0.02571 0.03125,0.03125 -1.8e-4,0.0034 5.6e-5,0.0284 0,0.03125 0.0055,0.01105 0.02569,0.0521 0.03125,0.0625 0.0057,0.0055 0.02557,0.02576 0.03125,0.03125 0.01103,0.03195 0.0255,0.08954 0.03125,0.125 3e-5,0.01072 2.03e-4,0.05163 0,0.0625 6.58e-4,0.02305 0.0016,0.06932 0,0.09375 8.4e-5,0.0032 1e-6,0.02845 0,0.03125 -0.0078,0.03657 -0.02418,0.09511 -0.03125,0.125 2.3e-4,0.0031 -2.6e-5,0.02849 0,0.03125 -0.01419,0.03152 -0.04866,0.09624 -0.0625,0.125 -0.0081,0.01632 -0.02599,0.05161 -0.03125,0.0625 -0.0054,0.01056 -0.0231,0.04639 -0.03125,0.0625 -0.0051,0.01106 -0.02609,0.05225 -0.03125,0.0625 -0.02526,0.02949 -0.06715,0.07061 -0.09375,0.09375 -0.0055,0.0056 -0.0257,0.02567 -0.03125,0.03125 -0.0055,0.0057 -0.02572,0.02565 -0.03125,0.03125 -0.01585,0.0082 -0.04952,0.02477 -0.0625,0.03125 -0.0088,0.004 -0.04598,0.02307 -0.0625,0.03125 -0.0031,-2.61e-4 -0.02851,7.6e-5 -0.03125,0 -0.179334,0.05325 -0.395508,0.05664 -0.59375,0 l -4.9375,-1.125 0.40625,-1.375 z m -0.875,3.34375 4.90625,1.0625 c 0.222168,0.06836 0.455112,0.196095 0.59375,0.375 0.0056,0.0055 0.02564,0.02571 0.03125,0.03125 0.0082,0.01577 0.02458,0.04932 0.03125,0.0625 0.0099,0.02477 0.02423,0.07091 0.03125,0.09375 0.0058,0.0108 0.0257,0.05156 0.03125,0.0625 -1e-6,0.01074 2.29e-4,0.05161 0,0.0625 -5.9e-5,0.0061 -6.4e-5,0.02726 0,0.03125 -6.9e-5,0.01762 4.12e-4,0.05052 0,0.0625 7.1e-5,0.0032 1.2e-5,0.02844 0,0.03125 1.61e-4,0.0031 -2.4e-5,0.02851 0,0.03125 -0.0035,0.01181 -0.02642,0.04968 -0.03125,0.0625 -0.0013,0.0038 0.001,0.02788 0,0.03125 2.87e-4,0.0028 -5.4e-5,0.0286 0,0.03125 -0.0084,0.03209 -0.02122,0.09194 -0.03125,0.125 -0.03151,0.07936 -0.08071,0.162183 -0.125,0.21875 -0.0045,0.0054 -0.0266,0.02602 -0.03125,0.03125 -0.0048,0.005 -0.02639,0.02644 -0.03125,0.03125 -0.005,0.0046 -0.02618,0.02684 -0.03125,0.03125 -0.0055,0.0056 -0.0257,0.02567 -0.03125,0.03125 -0.01059,0.0054 -0.05171,0.02627 -0.0625,0.03125 -0.0055,0.0057 -0.02574,0.0256 -0.03125,0.03125 -0.02478,0.0097 -0.07232,0.02424 -0.09375,0.03125 -0.01091,-1.27e-4 -0.05153,2.91e-4 -0.0625,0 -0.165238,0.03505 -0.353516,0.01953 -0.53125,-0.03125 L 12.46875,18.6875 12.875,17.28125 z m -0.96875,3.375 4.90625,1.0625 c 0.19043,0.05859 0.39146,0.145194 0.53125,0.28125 0.0045,0.0046 0.02686,0.02649 0.03125,0.03125 0.0043,0.0049 0.02714,0.02626 0.03125,0.03125 0.0053,0.01059 0.02627,0.05164 0.03125,0.0625 0.0057,0.0055 0.02561,0.02573 0.03125,0.03125 0.01009,0.02462 0.02353,0.07139 0.03125,0.09375 0.0088,0.02855 0.02484,0.08956 0.03125,0.125 5.21e-4,0.0055 -1.04e-4,0.02326 0,0.03125 -2.51e-4,0.01773 3.8e-5,0.05075 0,0.0625 3.54e-4,0.02836 0.002,0.09522 0,0.125 -9.95e-4,0.0037 0.0013,0.02733 0,0.03125 -0.0047,0.0125 -0.02755,0.05111 -0.03125,0.0625 -0.0072,0.02751 -0.02266,0.06848 -0.03125,0.09375 -0.0079,0.02147 -0.02195,0.06946 -0.03125,0.09375 -0.0071,0.01445 -0.0236,0.04897 -0.03125,0.0625 -0.0056,0.0055 -0.02563,0.02582 -0.03125,0.03125 -0.0053,0.01109 -0.02587,0.05163 -0.03125,0.0625 -0.0045,0.0054 -0.0266,0.02602 -0.03125,0.03125 -0.0048,0.005 -0.02639,0.02644 -0.03125,0.03125 -0.005,0.0046 -0.02618,0.02684 -0.03125,0.03125 -0.01062,0.0053 -0.05167,0.02634 -0.0625,0.03125 -0.0055,0.0057 -0.02573,0.02562 -0.03125,0.03125 -0.02107,0.0087 -0.07201,0.02414 -0.09375,0.03125 -0.02423,0.0087 -0.06855,0.02522 -0.09375,0.03125 -0.165238,0.03505 -0.353516,0.01953 -0.53125,-0.03125 L 11.5,22.0625 11.90625,20.65625 z"/>
   <path style="fill:#000000;fill-opacity:1;fill-rule:evenodd;stroke:none;stroke-width:1;marker:none;visibility:visible;display:inline;overflow:visible" id="path2284" d="m 22.28125,15.84375 8.3125,1.9375 c 1.34375,0.375 2.46875,2 2.46875,2 L 32.65625,21.375 c 0,0 -1.34375,-1.84375 -2.53125,-2.09375 0,0 -8.21875,-2 -8.21875,-2 -0.485214,-0.131407 -0.934884,-0.320784 -0.75,-0.90625 0.1875,-0.59375 0.5625,-0.625 1.125,-0.53125 z"/>
   <path style="fill:#000000;fill-opacity:1;fill-rule:evenodd;stroke:none;stroke-width:1;marker:none;visibility:visible;display:inline;overflow:visible" id="path2286" d="m 21.25,19.28125 8.3125,1.9375 c 1.34375,0.375 2.46875,2 2.46875,2 L 31.625,24.8125 c 0,0 -1.34375,-1.84375 -2.53125,-2.09375 0,0 -8.21875,-2 -8.21875,-2 -0.485214,-0.131407 -0.934884,-0.320784 -0.75,-0.90625 0.1875,-0.59375 0.5625,-0.625 1.125,-0.53125 z"/>
   <path style="fill:#000000;fill-opacity:1;fill-rule:evenodd;stroke:none;stroke-width:1;marker:none;visibility:visible;display:inline;overflow:visible" id="path2280" d="m 24.09375,8.9687499 8.3125,1.9375001 c 1.34375,0.375 2.0625,1.5 2.0625,1.5 L 34.0625,14 c 0,0 -0.9375,-1.34375 -2.125,-1.59375 0,0 -8.21875,-2 -8.21875,-2 -0.485214,-0.131407 -0.934884,-0.320784 -0.75,-0.9062501 0.1875,-0.59375 0.5625,-0.625 1.125,-0.53125 z"/>
   <path style="fill:#000000;fill-opacity:1;fill-rule:evenodd;stroke:none;stroke-width:1;marker:none;visibility:visible;display:inline;overflow:visible" id="path2282" d="m 23.1875,12.40625 8.3125,1.9375 c 1.34375,0.375 2.0625,1.5625 2.0625,1.5625 l -0.4375,1.5 c 0,0 -0.90625,-1.3125 -2.09375,-1.5625 0,0 -8.21875,-2 -8.21875,-2 -0.485214,-0.131407 -0.934884,-0.320784 -0.75,-0.90625 0.1875,-0.59375 0.5625,-0.625 1.125,-0.53125 z"/>
   <path style="fill:#000000;fill-opacity:1;fill-rule:evenodd;stroke:none;stroke-width:1;marker:none;visibility:visible;display:inline;overflow:visible" id="path2288" d="m 20.34375,22.71875 8.3125,1.9375 c 1.34375,0.375 2.46875,2 2.46875,2 L 30.71875,28.25 c 0,0 -1.34375,-1.84375 -2.53125,-2.09375 0,0 -8.21875,-2 -8.21875,-2 -0.485214,-0.131407 -0.872384,-0.320784 -0.75,-0.90625 0.123851,-0.592482 0.5625,-0.625 1.125,-0.53125 z"/>
   <path style="fill:#747474;fill-opacity:1;fill-rule:evenodd;stroke:#424242;stroke-width:1;stroke-linecap:butt;stroke-linejoin:miter;stroke-miterlimit:4;stroke-opacity:1;stroke-dasharray:none;stroke-dashoffset:0;marker:none;visibility:visible;display:inline;overflow:visible" id="path1345" d="m 31.5,19 -0.125,15.375 0,0.03125 0,0.03125 c 0.0877,1.40324 -1.095769,2.637096 -2.25,2.40625 L 18.65625,34.6875 c -0.46875,-0.125 -1.71875,-0.625 -1.3125,-2.0625 l -1.9375,-0.5 c -0.678757,2.436693 1.25,4.15625 2.6875,4.46875 L 28.75,38.78125 c 2.574613,0.514923 4.747942,-1.833968 4.625,-4.40625 -10e-4,-0.02114 0.0013,-0.04134 0,-0.0625 L 33.5,19 l -2,0 z"/>
   <path style="fill:#b3b3b3;fill-opacity:1;fill-rule:nonzero;stroke:#424242;stroke-width:1;stroke-linecap:butt;stroke-linejoin:miter;stroke-miterlimit:4;stroke-opacity:1;stroke-dasharray:none" id="path8117" d="m 34.815411,19.688028 c 0.01299,0.93499 -0.588015,1.836706 -1.452309,2.190879 -0.85796,0.37401 -1.925415,0.173688 -2.586715,-0.489519 -0.671268,-0.638376 -0.900562,-1.684484 -0.562307,-2.54614 0.325048,-0.884955 1.218254,-1.521163 2.162065,-1.532179 0.935686,-0.03712 1.853641,0.541852 2.22921,1.398433 0.138849,0.306252 0.21044,0.642347 0.210056,0.978526 z"/>
   <path style="fill:#000000;fill-opacity:1;fill-rule:evenodd;stroke:none;stroke-width:1;marker:none;visibility:visible;display:inline;overflow:visible" id="path2292" d="m 16.5625,23.34375 -4.9375,-1.15625 0.40625,-1.40625 4.90625,1.0625 c 0.40625,0.125 0.84375,0.375 0.6875,0.96875 -0.154418,0.586787 -0.625,0.65625 -1.0625,0.53125 z"/>
   <path style="fill:#000000;fill-opacity:1;fill-rule:evenodd;stroke:none;stroke-width:1;marker:none;visibility:visible;display:inline;overflow:visible" id="path2294" d="m 17.53125,19.976562 -4.9375,-1.15625 0.40625,-1.40625 4.90625,1.0625 c 0.40625,0.125 0.84375,0.375 0.6875,0.96875 -0.154418,0.586788 -0.625,0.65625 -1.0625,0.53125 z"/>
   <path style="fill:#000000;fill-opacity:1;fill-rule:evenodd;stroke:none;stroke-width:1;marker:none;visibility:visible;display:inline;overflow:visible" id="path2296" d="m 18.40625,16.546875 -4.9375,-1.09375 0.40625,-1.40625 4.90625,1 c 0.40625,0.125 0.84375,0.375 0.6875,0.96875 -0.154418,0.586787 -0.625,0.65625 -1.0625,0.53125 z"/>
   <path style="fill:#000000;fill-opacity:1;fill-rule:evenodd;stroke:none;stroke-width:1;marker:none;visibility:visible;display:inline;overflow:visible" id="path2298" d="m 19.34375,13.148438 -4.9375,-1.0625 0.40625,-1.40625 4.90625,0.96875 c 0.40625,0.125 0.84375,0.375 0.6875,0.96875 -0.154418,0.586786 -0.625,0.65625 -1.0625,0.53125 z"/>
   <path style="fill:#000000;fill-opacity:1;fill-rule:evenodd;stroke:none;stroke-width:1;marker:none;visibility:visible;display:inline;overflow:visible" id="path2300" d="M 20.25,9.78125 15.3125,8.71875 15.71875,7.3125 20.625,8.28125 c 0.40625,0.125 0.84375,0.375 0.6875,0.96875 -0.154418,0.586787 -0.625,0.65625 -1.0625,0.53125 z"/>
   <path style="opacity:0.29545456;fill:none;stroke:url(#linearGradient2879);stroke-width:1.16238523;stroke-linecap:butt;stroke-linejoin:miter;stroke-miterlimit:4;stroke-opacity:1;stroke-dasharray:none;stroke-dashoffset:0;marker:none;visibility:visible;display:inline;overflow:visible" id="path2389" d="m 27.625,46.375 c 0,3.2447 -5.0088,5.875 -11.1875,5.875 -6.1787,0 -11.1875,-2.6303 -11.1875,-5.875 0,-3.2447 5.0088,-5.875 11.1875,-5.875 6.1787,0 11.1875,2.6303 11.1875,5.875 z" transform="matrix(0.916296,0,0,0.807726,10.12589,1.916708)"/>
   <path style="opacity:0.29545456;fill:none;stroke:url(#linearGradient2881);stroke-width:1.16238523;stroke-linecap:butt;stroke-linejoin:miter;stroke-miterlimit:4;stroke-opacity:1;stroke-dasharray:none;stroke-dashoffset:0;marker:none;visibility:visible;display:inline;overflow:visible" id="path8307" d="m 27.625,46.375 c 0,3.2447 -5.0088,5.875 -11.1875,5.875 -6.1787,0 -11.1875,-2.6303 -11.1875,-5.875 0,-3.2447 5.0088,-5.875 11.1875,-5.875 6.1787,0 11.1875,2.6303 11.1875,5.875 z" transform="matrix(0.916296,0,0,0.807726,10.12589,1.916708)"/>
  </g>
 </g>
</svg>
